<svg id="Слой_1" xmlns="http://www.w3.org/2000/svg" viewBox="0 0 321.4 42.9"><style>.st0{fill:#0061A1;} .st1{fill:none;} .st2{fill:#82CAC9;}</style><path class="st0" d="M49.4 32.6L57.6 12h2.2L68 32.6h-2L63.8 27H53.5l-2.2 5.6h-1.9zm13.7-7.2l-4.5-11.6-4.5 11.6h9zM71.1 20.4c1.1-1.7 2.7-2.5 4.5-2.5 2.3 0 4 1.3 4.7 3.1 1.1-1.7 2.7-3.1 4.9-3.1 4.7 0 5.1 4.1 5.1 5.8v9h-1.7v-9.3c0-2.5-1.4-4-3.8-4-2.8 0-4.1 2.4-4.1 4.9v8.3H79v-9.3c0-2.5-1.4-4-3.8-4-2.8 0-4.1 2.4-4.1 4.9v8.3h-1.7v-11c0-1.1-.1-2.3-.1-3.2H71l.1 2.1zM94.3 25.9c.1 3.1 1.5 5.6 5 5.6 2 0 3.7-1.5 4.1-3.4h1.8c-.9 3.4-3 5-6.5 5-4.3 0-6.3-3.7-6.3-7.6 0-3.9 2.1-7.6 6.4-7.6 4.8 0 6.5 3.5 6.5 8h-11zm9.2-1.6c-.2-2.8-1.7-4.9-4.7-4.9-2.8 0-4.3 2.3-4.5 4.9h9.2zM109.8 32.6H108V21.5c0-1.1-.1-2.3-.1-3.2h1.8l.1 2.1h.1c.5-1.5 1.8-2.5 3.2-2.5h1.7v1.7c-.3 0-.7-.1-1.1-.1-2.5 0-3.9 1.8-3.9 4.6v8.5zM118.3 14.1h-2V12h2v2.1zm-.1 4.2v14.4h-1.7V18.3h1.7zM130.7 22.7c-.1-2.2-1.5-3.3-3.9-3.3-2.6 0-4.3 2.7-4.3 6s1.6 6.1 4.3 6.1c2.2 0 3.8-1.4 3.9-3.3h1.9c-.5 3.3-2.3 4.9-5.6 4.9-4.3 0-6.3-3.7-6.3-7.6 0-3.9 2.1-7.6 6.4-7.6 2.9 0 5.4 1.8 5.5 4.8h-1.9zM143.3 22.5c-.2-2.3-1.4-3.1-3.4-3.1-1.8 0-3.3.5-3.5 2.5h-1.8c.4-2.9 2.6-4.1 5.4-4.1 3.2 0 5.1 1.5 5.1 4.7v6.8c0 1.1.1 2.3.1 3.2h-1.8l-.1-2.1h-.1l-.1.2c-.6 1.2-2.5 2.3-4.5 2.3-2.7 0-4.8-1.6-4.8-4.4 0-2 1.2-3.4 2.9-4.2 1.9-.8 4.4-.5 6.5-.7v-1.1zm-4.2 9c3.7 0 4.4-3.1 4.3-6.1-2.4.1-7.5-.4-7.5 3.2-.1 2 1.4 2.9 3.2 2.9zM150.1 32.6h-1.7V21.5c0-1.1-.1-2.3-.1-3.2h1.8l.1 2.1.1.1c1-1.8 2.6-2.6 4.5-2.6 4.7 0 5.1 4.1 5.1 5.8v9H158v-9.3c0-2.5-1.4-4-3.8-4-2.8 0-4.1 2.4-4.1 4.9v8.3zM169.4 32.6V12h1.8v9.1l9.2-9.1h2.3l-9.5 9.3 10.4 11.3h-2.5l-9.9-10.8v10.8h-1.8zM187.3 12h-2v2.1h2V12zm-1.9 6.3v14.4h1.7V18.3h-1.7zM200.5 30.5l-.1-.1c-1.2 1.7-2.9 2.7-4.9 2.7-4.3 0-5.9-4.1-5.9-7.7 0-3.7 1.6-7.6 5.9-7.6 1.9 0 3.9.9 4.9 2.6l.1-.1V12h1.7v17.4c0 1.1.1 2.3.1 3.2h-1.8v-2.1zm-4.7-11.1c-3.3 0-4.3 3-4.3 5.8 0 2.7.8 6.3 4.1 6.3 3.7 0 4.9-3.1 4.9-6.4-.1-2.9-1.4-5.7-4.7-5.7zM207.1 32.6h-1.7V21.5c0-1.1-.1-2.3-.1-3.2h1.8l.1 2.1.1.1c1-1.8 2.6-2.6 4.5-2.6 4.7 0 5.1 4.1 5.1 5.8v9H215v-9.3c0-2.5-1.4-4-3.8-4-2.8 0-4.1 2.4-4.1 4.9v8.3zM220.7 25.9c.1 3.1 1.5 5.6 5 5.6 2 0 3.7-1.5 4.1-3.4h1.8c-.9 3.4-3 5-6.5 5-4.3 0-6.3-3.7-6.3-7.6 0-3.9 2.1-7.6 6.4-7.6 4.8 0 6.6 3.5 6.6 8h-11.1zm9.2-1.6c-.2-2.8-1.7-4.9-4.7-4.9-2.8 0-4.3 2.3-4.5 4.9h9.2zM234.5 18.3l4.8 12 4.8-12h1.9l-7.9 19.8h-1.9l2.2-5.5-5.9-14.4h2zM255.2 32.6V12h11.7v1.7H257V21h9.5v1.7H257v9.9h-1.8zM278.3 18.3h1.7v11.1c0 1.1.1 2.3.1 3.2h-1.8l-.1-2.1-.1-.1c-1 1.8-2.6 2.6-4.5 2.6-4.7 0-5.1-4.1-5.1-5.8v-9h1.7v9.3c0 2.5 1.4 3.9 3.8 3.9 2.8 0 4.1-2.4 4.1-4.9v-8.2zM284.8 32.6h-1.7V21.5c0-1.1-.1-2.3-.1-3.2h1.8l.1 2.1.1.1c1-1.8 2.6-2.6 4.5-2.6 4.7 0 5.1 4.1 5.1 5.8v9h-1.7v-9.3c0-2.5-1.4-4-3.8-4-2.8 0-4.1 2.4-4.1 4.9v8.3zM307.3 30.5l-.1-.1c-1.2 1.7-2.9 2.7-4.9 2.7-4.2 0-5.9-4.1-5.9-7.7 0-3.7 1.6-7.6 5.9-7.6 1.9 0 3.9.9 4.9 2.6l.1-.1V12h1.7v17.4c0 1.1.1 2.3.1 3.2h-1.8v-2.1zm-4.7-11.1c-3.3 0-4.3 3-4.3 5.8 0 2.7.8 6.3 4.1 6.3 3.7 0 4.9-3.1 4.9-6.4 0-2.9-1.3-5.7-4.7-5.7zM318 6.4c1.9 0 3.4 1.5 3.4 3.4s-1.5 3.4-3.5 3.4c-1.9 0-3.5-1.5-3.5-3.4s1.6-3.4 3.6-3.4zm-.1.7c-1.5 0-2.6 1.2-2.6 2.7 0 1.5 1.1 2.7 2.6 2.7s2.6-1.2 2.6-2.7c0-1.4-1-2.7-2.6-2.7zm-.5 4.5h-.8V8.2c.3-.1.7-.1 1.3-.1.6 0 .9.1 1.2.3.2.1.3.4.3.7 0 .4-.3.7-.7.8.3.1.5.4.6.8.1.5.2.7.2.8h-.8c-.1-.1-.2-.4-.3-.8-.1-.4-.3-.5-.7-.5h-.4l.1 1.4zm0-1.9h.4c.4 0 .8-.1.8-.5 0-.3-.2-.5-.7-.5h-.4l-.1 1z"/><path class="st1" d="M18.7 21.5c0 3.5.9 7 2.6 10 1.7-3 2.6-6.5 2.6-10 0-3.6-.9-7-2.6-10-1.7 3-2.6 6.4-2.6 10z"/><path class="st2" d="M28.8 39.3c-3.1-.1-5-1.8-5.1-1.8-1.2-1.1-2.3-2.4-3.3-3.7v-.1l-.2-.3c-2.3-3.5-3.6-7.6-3.6-11.8 0-4.2 1.2-8.3 3.6-11.8-.2-.5-.5-.8-.7-1.1-.2-.3-.5-.6-.7-.8l-.2-.2c-.3-.3-.4-.5-.6-.7-.3-.3-.6-.5-.9-.8-.6-.4-2-1.3-4-1.1-.3 0-.6.1-.9.1-.2.1-.5.1-.7.2h-.2c-.2.1-.5.2-.7.3-.1 0-.1 0-.2.1-.2.2-.4.3-.7.4-.1 0-.1.1-.2.1-.2.2-.4.4-.6.5-.1 0-.1.1-.2.1-.3.2-.5.4-.7.6-.1.1-.2.1-.2.2-.2.2-.5.4-.7.6l-.2.2c-.2.2-.4.4-.6.7-.1.1-.2.1-.3.3-2.6 3.5-3.9 7.6-3.9 12 0 7.9 4.5 15 11.5 18.2 2.2 1 4.5 1.6 6.8 1.7h1c1.6 0 3.2-.2 4.8-.6 1-.3 2-.6 3-1.1.3-.1.5-.3.8-.4h-1.2z"/><path class="st0" d="M42.7 21.5c0-8.4-4.9-16-12.5-19.5-2.8-1.3-5.7-2-8.8-2H20.3c-1.1.1-2.3.2-3.4.5-1.5.3-3 .8-4.4 1.5-3.3 1.4-6.1 3.8-8.3 6.7C1.4 12.4 0 16.8 0 21.5c0 8.4 4.9 16 12.5 19.5 2.5 1.1 5.1 1.8 7.8 1.9h1.1c1.9 0 3.7-.3 5.5-.7 1.2-.3 2.3-.7 3.4-1.2 1-.5 2.1-1.1 3-1.7 2-1.4 3.7-3 5.1-4.9l.2-.3c.8-1.3 4.1-6.9 4.1-12.6zM20.9 41.4h-.5c-2.4-.1-4.6-.7-6.8-1.7-7-3.2-11.5-10.4-11.5-18.2 0-4.4 1.4-8.5 3.9-12l.3-.3.6-.6c.1-.2.1-.2.2-.3.2-.2.4-.4.7-.6 0-.1.1-.1.2-.2.2-.2.5-.4.7-.6.1 0 .1-.1.2-.1.2-.2.5-.3.7-.5.1 0 .1-.1.2-.1.2-.1.4-.2.7-.4.1 0 .1 0 .2-.1.2-.1.5-.2.7-.3h.2c.2-.1.5-.2.7-.2.3-.1.6-.1.9-.1 2-.2 3.4.7 4 1.1.2.3.5.5.8.8l.6.6.2.2c.2.3.5.6.7.8.2.4.5.7.7 1-2.3 3.5-3.6 7.6-3.6 11.8 0 4.2 1.2 8.3 3.6 11.8l.2.3v.1c.9 1.4 2.1 2.6 3.3 3.7.1.1 2 1.8 5.1 1.8h1.1c-.3.1-.5.3-.8.4-1 .4-2 .8-3 1.1-1.6.4-3.2.6-4.8.6l-.4.2zM24 21.5c0 3.5-.9 7-2.6 10-1.7-3-2.6-6.5-2.6-10 0-3.6.9-7 2.6-10 1.7 3 2.6 6.4 2.6 10z"/></svg>